<?xml version="1.0" encoding="UTF-8" standalone="no"?>
<svg
   xmlns:dc="http://purl.org/dc/elements/1.1/"
   xmlns:cc="http://creativecommons.org/ns#"
   xmlns:rdf="http://www.w3.org/1999/02/22-rdf-syntax-ns#"
   xmlns:svg="http://www.w3.org/2000/svg"
   xmlns="http://www.w3.org/2000/svg"
   xmlns:sodipodi="http://sodipodi.sourceforge.net/DTD/sodipodi-0.dtd"
   xmlns:inkscape="http://www.inkscape.org/namespaces/inkscape"
   width="24"
   height="24"
   fill-rule="evenodd"
   clip-rule="evenodd"
   version="1.1"
   id="svg4"
   sodipodi:docname="smiley_stock_grey.svg"
   inkscape:version="0.92.4 (5da689c313, 2019-01-14)">
  <metadata
     id="metadata10">
    <rdf:RDF>
      <cc:Work
         rdf:about="">
        <dc:format>image/svg+xml</dc:format>
        <dc:type
           rdf:resource="http://purl.org/dc/dcmitype/StillImage" />
        <dc:title></dc:title>
      </cc:Work>
    </rdf:RDF>
  </metadata>
  <defs
     id="defs8">
    <marker
       inkscape:stockid="Arrow1Mend"
       orient="auto"
       refY="0.0"
       refX="0.0"
       id="Arrow1Mend"
       style="overflow:visible;"
       inkscape:isstock="true">
      <path
         id="path832"
         d="M 0.0,0.0 L 5.0,-5.0 L -12.5,0.0 L 5.0,5.0 L 0.0,0.0 z "
         style="fill-rule:evenodd;stroke:#000000;stroke-width:1pt;stroke-opacity:1;fill:#000000;fill-opacity:1"
         transform="scale(0.4) rotate(180) translate(10,0)" />
    </marker>
    <marker
       inkscape:stockid="Arrow1Lstart"
       orient="auto"
       refY="0.0"
       refX="0.0"
       id="Arrow1Lstart"
       style="overflow:visible"
       inkscape:isstock="true">
      <path
         id="path823"
         d="M 0.0,0.0 L 5.0,-5.0 L -12.5,0.0 L 5.0,5.0 L 0.0,0.0 z "
         style="fill-rule:evenodd;stroke:#000000;stroke-width:1pt;stroke-opacity:1;fill:#000000;fill-opacity:1"
         transform="scale(0.8) translate(12.5,0)" />
    </marker>
    <marker
       inkscape:stockid="Arrow1Mstart"
       orient="auto"
       refY="0.0"
       refX="0.0"
       id="Arrow1Mstart"
       style="overflow:visible"
       inkscape:isstock="true">
      <path
         id="path829"
         d="M 0.0,0.0 L 5.0,-5.0 L -12.5,0.0 L 5.0,5.0 L 0.0,0.0 z "
         style="fill-rule:evenodd;stroke:#000000;stroke-width:1pt;stroke-opacity:1;fill:#000000;fill-opacity:1"
         transform="scale(0.4) translate(10,0)" />
    </marker>
  </defs>
  <sodipodi:namedview
     pagecolor="#ffffff"
     bordercolor="#666666"
     borderopacity="1"
     objecttolerance="10"
     gridtolerance="10"
     guidetolerance="10"
     inkscape:pageopacity="0"
     inkscape:pageshadow="2"
     inkscape:window-width="1850"
     inkscape:window-height="1016"
     id="namedview6"
     showgrid="false"
     inkscape:zoom="32"
     inkscape:cx="5.2474115"
     inkscape:cy="11.562655"
     inkscape:window-x="70"
     inkscape:window-y="27"
     inkscape:window-maximized="1"
     inkscape:current-layer="svg4" />
  <path
     d="M 12,0 C 18.623,0 24,5.377 24,12 24,18.623 18.623,24 12,24 5.377,24 0,18.623 0,12 0,5.377 5.377,0 12,0 Z m 0,1 C 18.071,1 23,5.929 23,12 23,18.071 18.071,23 12,23 5.929,23 1,18.071 1,12 1,5.929 5.929,1 12,1 Z M 8.487,6.5 c 0.552,0 1,0.448 1,1 0,0.552 -0.448,1 -1,1 -0.552,0 -1,-0.448 -1,-1 0,-0.552 0.448,-1 1,-1 z m 7.013,0 c 0.552,0 1,0.448 1,1 0,0.552 -0.448,1 -1,1 -0.552,0 -1,-0.448 -1,-1 0,-0.552 0.448,-1 1,-1 z"
     id="path2"
     inkscape:connector-curvature="0"
     sodipodi:nodetypes="ssssssssssssssssssss" />
  <path
     style="fill:none;stroke:#000000;stroke-width:0.30000001;stroke-linecap:butt;stroke-linejoin:miter;stroke-miterlimit:4;stroke-dasharray:none;stroke-opacity:1;marker-start:url(#Arrow1Mstart);marker-end:url(#Arrow1Mend)"
     d="m 5.059322,10.220339 0,9.483051 h 13.398305"
     id="path821"
     inkscape:connector-curvature="0"
     sodipodi:nodetypes="ccc" />
  <path
     style="fill:none;stroke:#000000;stroke-width:0.3;stroke-linecap:butt;stroke-linejoin:miter;stroke-opacity:1;stroke-miterlimit:4;stroke-dasharray:none"
     d="m 5.059322,19.70339 1.9576272,-7.169492 2.2372881,5.694916 3.4067797,0.406779 2.008475,-0.737288 3.305084,-5.720339"
     id="path1691"
     inkscape:connector-curvature="0" />
  <path
     style="fill:#585858;fill-opacity:1;stroke-width:0.00762712;stroke-miterlimit:4;stroke-dasharray:none;stroke:#585858;stroke-opacity:1"
     d="M 11.451345,22.977609 C 7.6697572,22.757234 4.3433681,20.711862 2.4630743,17.450789 0.5607452,14.151499 0.53161726,10.008529 2.3873752,6.6838396 3.139667,5.3360688 4.1445444,4.1778133 5.3754602,3.2396722 8.4029158,0.93229998 12.468509,0.37544039 16.032937,1.77993 c 1.858492,0.7323009 3.53135,2.0082298 4.746162,3.6200113 1.042133,1.3826771 1.764425,3.0508256 2.047832,4.7295137 0.116769,0.691649 0.149658,1.102144 0.149658,1.867944 0,1.752729 -0.349957,3.270995 -1.113421,4.830508 -1.061608,2.168527 -2.764068,3.888513 -4.933009,4.983793 -1.208428,0.610237 -2.412181,0.96423 -3.800847,1.117732 -0.339535,0.03753 -1.358574,0.06679 -1.677967,0.04818 z m 6.26695,-2.882337 c 0.699152,-0.199272 1.287857,-0.371332 1.308232,-0.382356 0.02641,-0.01429 0.0082,-0.02793 -0.06356,-0.04751 -0.05533,-0.01511 -0.655478,-0.186385 -1.333656,-0.380618 -0.678178,-0.194233 -1.238202,-0.348457 -1.244498,-0.342722 -0.0063,0.0057 0.119366,0.141613 0.279247,0.301949 l 0.290692,0.29152 h -5.8424 c -5.7020193,0 -5.8420365,-0.0011 -5.827263,-0.04769 0.00833,-0.02623 0.407833,-1.48723 0.8877943,-3.246665 l 0.8726573,-3.198971 0.052409,0.138613 c 0.1130966,0.299124 2.0399239,5.193631 2.0460383,5.197325 0.00358,0.0022 0.2753652,0.0352 0.6039669,0.07342 0.3286012,0.03821 1.1237512,0.132518 1.7669982,0.209563 l 1.16954,0.14008 1.041207,-0.382988 c 0.572664,-0.210644 1.049128,-0.3915 1.058808,-0.401903 0.06618,-0.07111 3.327639,-5.761911 3.31087,-5.777008 -0.01163,-0.01047 -0.07382,-0.04927 -0.138183,-0.08621 l -0.117032,-0.06717 -1.641308,2.840874 -1.641308,2.840874 -0.957236,0.350907 -0.957235,0.350906 -1.186968,-0.141554 c -0.652832,-0.07785 -1.387179,-0.165128 -1.631882,-0.19394 -0.2447034,-0.02881 -0.4478151,-0.05516 -0.4513592,-0.05856 -0.00354,-0.0034 -0.5269873,-1.3323 -1.163207,-2.95312 -0.6362197,-1.62082 -1.169553,-2.975548 -1.1851853,-3.010505 -0.0272,-0.06083 -0.029368,-0.06137 -0.050421,-0.01271 -0.012099,0.02797 -0.4057076,1.458051 -0.8746854,3.177966 -0.4689775,1.719915 -0.8572174,3.138559 -0.862755,3.152542 -0.00554,0.01398 -0.010971,-1.490279 -0.012075,-3.342805 l -0.00201,-3.36823 0.2915196,0.290693 c 0.1603358,0.159881 0.29682,0.285392 0.303298,0.278914 0.00648,-0.0065 -0.1418911,-0.54934 -0.3297091,-1.206361 C 5.0426819,9.5252701 5.0687806,9.6130147 5.0548919,9.6269034 c -0.0204,0.020399 -0.7674704,2.6493876 -0.7563389,2.6616026 0.00574,0.0063 0.141615,-0.119365 0.3019507,-0.279246 l 0.2915197,-0.290693 v 4.073738 4.073738 h 6.0313646 6.031365 l -0.285602,0.286415 c -0.267808,0.26857 -0.329685,0.345887 -0.253822,0.317161 0.01748,-0.0066 0.603813,-0.175075 1.302966,-0.374347 z M 8.9211299,8.4128924 C 9.1224653,8.3162169 9.2992736,8.1352773 9.3998252,7.9230112 9.4742806,7.7658344 9.4810065,7.7305729 9.4810065,7.497399 c 0,-0.2312726 -0.00708,-0.269171 -0.078351,-0.4195643 C 9.3022858,6.8660469 9.1208331,6.6845942 8.9090453,6.5842246 8.758652,6.5129507 8.7207536,6.5058735 8.489481,6.5058735 c -0.2331739,0 -0.2684354,0.00673 -0.4256123,0.081181 -0.2112831,0.1000861 -0.3922037,0.2763264 -0.4914071,0.4786953 -0.068665,0.1400733 -0.074506,0.173911 -0.074506,0.4316489 0,0.2527787 0.00664,0.2931765 0.069054,0.4202649 0.090303,0.1838702 0.2171914,0.3296117 0.3753158,0.4310799 0.1940148,0.124499 0.3106617,0.1533402 0.5852913,0.1447146 0.2042263,-0.00641 0.2649971,-0.018856 0.3935132,-0.080566 z m 7.0105061,-0.00497 c 0.212216,-0.1005216 0.372689,-0.2619058 0.482792,-0.4855335 0.07698,-0.1563612 0.08346,-0.1886148 0.08272,-0.4117291 -10e-4,-0.312541 -0.06251,-0.4763675 -0.257907,-0.6874223 -0.339008,-0.3661691 -0.870125,-0.4373515 -1.286415,-0.1724103 -0.517933,0.3296311 -0.612604,1.0785316 -0.19378,1.5329019 0.212965,0.2310399 0.433156,0.319652 0.772808,0.3110034 0.19746,-0.00503 0.252241,-0.016923 0.399782,-0.08681 z"
     id="path1724"
     inkscape:connector-curvature="0" />
  <path
     style="fill:#585858;fill-opacity:1;stroke-width:0.00762712;stroke-miterlimit:4;stroke-dasharray:none"
     d="M 11.133549,23.960595 C 10.044959,23.865204 9.1730176,23.68836 8.20982,23.367617 6.1193839,22.671506 4.2880881,21.431362 2.8594459,19.744372 1.3061833,17.910225 0.38892231,15.789738 0.08224649,13.324152 0.01615874,12.792826 0.01617557,11.211176 0.08227463,10.680085 0.15411519,10.102861 0.24288745,9.6133784 0.3662114,9.1144802 1.4710078,4.6451056 5.1028192,1.1639292 9.6081251,0.2558888 c 2.2704799,-0.45761327 4.6100569,-0.2588434 6.7372879,0.5723985 1.220567,0.4769513 2.326793,1.133223 3.368644,1.9984575 0.332535,0.276163 1.192721,1.1362777 1.459393,1.459272 0.408144,0.4943468 0.782285,1.016821 1.081519,1.5103012 1.983395,3.2709152 2.27954,7.298792 0.797413,10.845631 -0.173125,0.414301 -0.534044,1.123294 -0.779099,1.530472 -1.638951,2.723238 -4.315744,4.701709 -7.389734,5.461899 -0.99585,0.246272 -1.621843,0.321086 -2.758475,0.329673 -0.482415,0.0036 -0.928601,0.0021 -0.991525,-0.0034 z m 2.044977,-1.011508 c 1.886475,-0.21115 3.649561,-0.87782 5.167863,-1.954109 2.404726,-1.704653 4.02048,-4.26816 4.506347,-7.149639 0.11893,-0.705323 0.141048,-1.000095 0.140209,-1.868644 -8.26e-4,-0.856825 -0.0281,-1.196753 -0.153301,-1.910505 -0.762611,-4.3476048 -4.12551,-7.8555386 -8.451858,-8.816367 -0.821842,-0.1825209 -1.42008,-0.2434672 -2.38983,-0.2434672 -0.814694,0 -1.101762,0.020785 -1.779661,0.1288525 C 7.8272933,1.5163722 5.5441334,2.7481497 3.900845,4.5435075 2.2898399,6.3035946 1.3318519,8.4144581 1.04891,10.827559 c -0.0546528,0.466112 -0.062806,1.742059 -0.014166,2.216932 0.3100881,3.027401 1.7639349,5.693343 4.1403623,7.59225 1.6833178,1.34507 3.7599824,2.157694 5.9965777,2.346532 0.39577,0.03341 1.583662,0.01318 2.006842,-0.03419 z"
     id="path1728"
     inkscape:connector-curvature="0" />
  <path
     style="fill:#ffffff;fill-opacity:1;stroke-width:0.01183217;stroke-miterlimit:4;stroke-dasharray:none"
     d="M 8.1006744,8.9822232 C 7.8048619,8.8996473 7.5744635,8.7539022 7.3479623,8.5060737 7.075429,8.207879 6.9754015,7.9356739 6.972011,7.4829979 6.9695894,7.1596945 6.9808458,7.1038683 7.0952711,6.8716694 7.5672974,5.9138067 8.7440466,5.6736641 9.5065364,6.3795953 9.8785351,6.7240001 10.057955,7.1911429 10.003826,7.6743488 9.969409,7.981582 9.7590535,8.3952863 9.5298062,8.6065991 9.1501524,8.9565516 8.5622507,9.1110722 8.1006744,8.9822232 Z"
     id="path1730"
     inkscape:connector-curvature="0" />
  <path
     style="fill:#ffffff;fill-opacity:1;stroke-width:0.01242378;stroke-miterlimit:4;stroke-dasharray:none"
     d="M 15.178067,9.0718924 C 14.707317,8.9796131 14.263179,8.6248359 14.042303,8.1646406 13.925607,7.9215007 13.913091,7.857398 13.913091,7.5020396 c 0,-0.3560502 0.01251,-0.4197779 0.131478,-0.6709131 0.579641,-1.2235457 2.276068,-1.2479107 2.887417,-0.041472 0.381262,0.7523893 0.07529,1.7179998 -0.668626,2.1100935 -0.373639,0.1969313 -0.697104,0.2482378 -1.085293,0.1721444 z"
     id="path1732"
     inkscape:connector-curvature="0" />
  <path
     style="fill:#ffffff;fill-opacity:1;stroke-width:0.00762712;stroke-miterlimit:4;stroke-dasharray:none"
     d="m 16.733125,20.146823 c 0.150318,-0.15229 0.273305,-0.285284 0.273305,-0.295543 0,-0.01026 -2.717161,-0.01865 -6.038135,-0.01865 H 4.930159 v -4.080509 c 0,-2.244279 -0.00839,-4.080508 -0.018653,-4.080508 -0.010259,0 -0.1432535,0.122987 -0.2955435,0.273305 -0.206177,0.203507 -0.2731424,0.257073 -0.2622137,0.209746 0.045893,-0.198739 0.6931357,-2.4403778 0.7046657,-2.4405142 0.014263,-1.688e-4 0.7130128,2.4334792 0.7115463,2.4782162 -4.505e-4,0.01374 -0.1266666,-0.100467 -0.2804802,-0.253804 l -0.279661,-0.278794 0.00219,3.469906 c 0.0012,1.908448 0.010993,3.441303 0.021758,3.406346 0.010765,-0.03496 0.4060356,-1.482204 0.8783789,-3.216102 0.4723433,-1.733898 0.8666194,-3.161334 0.8761691,-3.17208 0.00955,-0.01075 0.5415394,1.316373 1.1821993,2.949153 0.6406597,1.632779 1.1719978,2.976828 1.1807515,2.986775 0.00875,0.0099 0.7544936,0.106365 1.6572006,0.214261 l 1.641286,0.196175 0.963475,-0.354091 0.963474,-0.354091 1.602578,-2.773257 c 0.881418,-1.525291 1.619998,-2.799215 1.641289,-2.830943 l 0.03871,-0.05769 0.101119,0.05799 c 0.05561,0.0319 0.105509,0.06127 0.110875,0.06528 0.01323,0.0099 -0.161404,0.315786 -1.833842,3.212346 -0.795254,1.37733 -1.45953,2.517901 -1.476169,2.534603 -0.04339,0.04355 -2.039638,0.770481 -2.11585,0.770481 -0.05362,0 -2.143492,-0.244888 -3.1509322,-0.369221 -0.1673792,-0.02066 -0.311609,-0.03756 -0.3205109,-0.03756 -0.0089,0 -0.489752,-1.205935 -1.0685557,-2.679855 C 7.5266071,14.204276 7.04732,13.003906 7.0403285,13.010708 7.033337,13.01751 6.6260079,14.4923 6.1351528,16.28802 l -0.8924639,3.264946 h 5.8877931 5.887793 l -0.278794,-0.279661 c -0.153337,-0.153814 -0.267548,-0.28003 -0.253804,-0.28048 0.04474,-0.0015 2.478385,0.697283 2.478216,0.711546 -1.27e-4,0.01153 -2.241775,0.658773 -2.440514,0.704666 -0.04733,0.01093 0.0062,-0.05604 0.209746,-0.262214 z"
     id="path1734"
     inkscape:connector-curvature="0" />
  <path
     style="fill:#585858;fill-opacity:1;stroke:#585858;stroke-width:0.00117188;stroke-miterlimit:4;stroke-dasharray:none;stroke-opacity:1"
     d="m 1.0705755,10.764722 c 0.016775,-0.155079 0.051789,-0.405005 0.082499,-0.588867 C 1.367434,8.8924771 1.8099219,7.6580049 2.4615312,6.5254646 2.642872,6.2102823 2.8376145,5.9076896 3.0510603,5.609449 3.1519879,5.4684262 3.1721463,5.4416993 3.1776677,5.4415866 c 0.00286,-5.85e-5 0.00462,0.00127 0.00391,0.00295 -7.161e-4,0.00168 -0.031555,0.044592 -0.068532,0.095353 -0.412664,0.5665123 -0.779999,1.1854572 -1.069616,1.802258 -0.4863204,1.0357223 -0.8030234,2.1330252 -0.9473632,3.2823954 -0.010621,0.08457 -0.01931,0.156202 -0.01931,0.15918 0,0.003 -0.00198,0.0054 -0.00441,0.0054 -0.00309,0 -0.00362,-0.0073 -0.00177,-0.02441 z"
     id="path1817"
     inkscape:connector-curvature="0" />
  <path
     style="fill:#585858;fill-opacity:1;stroke:#585858;stroke-width:0.00117188;stroke-miterlimit:4;stroke-dasharray:none;stroke-opacity:1"
     d="M 3.2259671,5.3932816 C 3.7806354,4.6571249 4.4410316,3.9794856 5.172647,3.3957734 5.942566,2.7815011 6.7714079,2.2852615 7.6706939,1.9001568 8.4802767,1.5534659 9.3187748,1.3086104 10.198038,1.1621299 c 0.176953,-0.029479 0.320111,-0.049357 0.592773,-0.082305 l 0.01856,-0.00224 v 2.177869 2.1778689 H 7.0025824 3.1957991 Z"
     id="path1819"
     inkscape:connector-curvature="0" />
  <path
     style="fill:#585858;fill-opacity:1;stroke:#585858;stroke-width:0.00117188;stroke-miterlimit:4;stroke-dasharray:none;stroke-opacity:1"
     d=""
     id="path1821"
     inkscape:connector-curvature="0" />
  <path
     style="fill:#585858;fill-opacity:1;stroke:#585858;stroke-width:0.00117188;stroke-miterlimit:4;stroke-dasharray:none;stroke-opacity:1"
     d="m 3.1829698,5.4284379 c 0.00163,-0.00269 0.028428,-0.038281 0.059541,-0.079102 C 4.1786401,4.1211467 5.3458496,3.1122643 6.6941314,2.3659137 6.9960441,2.1987879 7.3761033,2.0132697 7.688272,1.8806444 8.6485974,1.4726486 9.6241259,1.2104091 10.651163,1.0841662 c 0.15706,-0.019306 0.158203,-0.019411 0.158203,-0.014585 0,0.00529 -0.0076,0.00688 -0.05859,0.012157 -0.308857,0.032009 -0.7286,0.1015856 -1.1074218,0.1835671 -1.168077,0.2527853 -2.3168496,0.7122215 -3.34375,1.337288 -1.1624711,0.7075873 -2.2252355,1.666834 -3.0464048,2.7496725 -0.033807,0.04458 -0.064107,0.081055 -0.067332,0.081055 -0.00367,0 -0.00475,-0.00183 -0.00289,-0.00488 z"
     id="path1823"
     inkscape:connector-curvature="0" />
  <path
     style="fill:#585858;fill-opacity:1;stroke:#585858;stroke-width:0.00117188;stroke-miterlimit:4;stroke-dasharray:none;stroke-opacity:1"
     d="M 17.244463,2.3419339 C 16.308274,1.8296876 15.302527,1.4607757 14.238211,1.2392291 13.65155,1.1171106 13.025712,1.0409137 12.426104,1.0186016 c -0.06231,-0.00232 -0.128223,-0.0048 -0.146485,-0.00551 -0.01826,-7.1e-4 0.0292,-5.988e-4 0.105469,2.472e-4 0.197323,0.00219 0.37912,0.012018 0.607422,0.032843 1.508774,0.1376216 2.935195,0.5699843 4.261719,1.2917708 0.101943,0.055469 0.09303,0.050112 0.09123,0.054851 -7.61e-4,0.002 -0.04621,-0.020896 -0.100993,-0.050873 z"
     id="path1825"
     inkscape:connector-curvature="0" />
  <path
     style="fill:#585858;fill-opacity:1;stroke:#585858;stroke-width:0.00117188;stroke-miterlimit:4;stroke-dasharray:none;stroke-opacity:1"
     d="m 17.329436,21.6267 c 9.68e-4,-9.68e-4 0.05443,-0.03193 0.118816,-0.06881 1.45499,-0.833474 2.68691,-1.969973 3.637882,-3.356101 0.389787,-0.568151 0.744822,-1.211395 1.01629,-1.841289 0.0175,-0.04061 0.03371,-0.07559 0.03601,-0.07774 0.0057,-0.0053 0.0058,-0.0056 -0.03901,0.09766 -0.63225,1.456025 -1.572619,2.757159 -2.762638,3.822506 -0.520044,0.46556 -1.094232,0.88931 -1.684765,1.243353 -0.147623,0.0885 -0.311731,0.182188 -0.319141,0.182188 -0.0029,0 -0.0044,-7.91e-4 -0.0034,-0.0018 z"
     id="path1827"
     inkscape:connector-curvature="0" />
  <path
     style="fill:#585858;fill-opacity:1;stroke:#585858;stroke-width:0.00117188;stroke-miterlimit:4;stroke-dasharray:none;stroke-opacity:1"
     d="m 17.294148,21.626837 c 8.95e-4,-8.92e-4 0.03678,-0.02134 0.07975,-0.04543 1.328271,-0.744884 2.471611,-1.738638 3.379459,-2.937318 0.518336,-0.684386 0.951516,-1.423736 1.31562,-2.245494 0.02698,-0.0609 0.04906,-0.112316 0.04906,-0.114258 0,-0.0019 0.0026,-0.0035 0.0059,-0.0035 0.0032,0 0.0059,0.0015 0.0059,0.0033 0,0.0018 -0.01562,0.03931 -0.03471,0.08338 -0.489158,1.129189 -1.177689,2.184929 -2.015877,3.090989 -0.768907,0.831168 -1.648365,1.531607 -2.62905,2.093889 -0.125262,0.07182 -0.133609,0.07614 -0.147034,0.07614 -0.0058,0 -0.0098,-7.3e-4 -0.0089,-0.0016 z"
     id="path1829"
     inkscape:connector-curvature="0" />
  <path
     style="fill:#585858;fill-opacity:1;stroke:#585858;stroke-width:0.00165728;stroke-miterlimit:4;stroke-dasharray:none;stroke-opacity:1"
     d="m 11.859233,22.990882 c 0.06532,-0.0024 0.235197,-0.0071 0.377495,-0.01039 0.260919,-0.0061 0.51169,-0.01636 0.687506,-0.02815 0.05252,-0.0035 0.09664,-0.0053 0.09805,-0.0038 0.0032,0.0032 -0.190785,0.01864 -0.367552,0.02919 -0.169071,0.01009 -0.567293,0.01972 -0.764877,0.01848 l -0.14939,-9.34e-4 z"
     id="path1831"
     inkscape:connector-curvature="0" />
  <path
     style="fill:#585858;fill-opacity:1;stroke:#585858;stroke-width:0.00165728;stroke-miterlimit:4;stroke-dasharray:none;stroke-opacity:1"
     d="m 10.677038,22.919021 c -0.01975,-0.0027 -0.100541,-0.01362 -0.179538,-0.02428 C 9.147554,22.712569 7.8115598,22.263261 6.6168439,21.589639 6.4133043,21.474876 6.110617,21.291629 6.1158872,21.286358 c 0.00146,-0.0015 0.056946,0.03072 0.1232963,0.07152 1.0371709,0.637718 2.1726757,1.098363 3.3716705,1.367802 0.3386488,0.0761 0.666973,0.133575 1.074471,0.18809 0.04254,0.0057 0.06615,0.0103 0.05248,0.01025 -0.01367,-5.6e-5 -0.04102,-0.0023 -0.06077,-0.005 z"
     id="path1833"
     inkscape:connector-curvature="0" />
  <path
     style="fill:#585858;fill-opacity:1;stroke:#585858;stroke-width:0.00234375;stroke-miterlimit:4;stroke-dasharray:none;stroke-opacity:1"
     d=""
     id="path1835"
     inkscape:connector-curvature="0" />
  <path
     style="fill:#585858;fill-opacity:1;stroke:#585858;stroke-width:0.00234375;stroke-miterlimit:4;stroke-dasharray:none;stroke-opacity:1"
     d=""
     id="path1837"
     inkscape:connector-curvature="0" />
  <path
     style="fill:#585858;fill-opacity:1;stroke:#585858;stroke-width:0.00234375;stroke-miterlimit:4;stroke-dasharray:none;stroke-opacity:1"
     d=""
     id="path1839"
     inkscape:connector-curvature="0" />
  <path
     style="fill:#585858;fill-opacity:1;stroke:#585858;stroke-width:0.00234375;stroke-miterlimit:4;stroke-dasharray:none;stroke-opacity:1"
     d="M 11.047433,23.950724 C 10.054629,23.846099 9.4651177,23.737197 8.7057185,23.51813 6.1472629,22.780086 3.9683671,21.268519 2.3702385,19.123012 1.5307852,17.996037 0.9097292,16.751862 0.51260509,15.401578 0.48879186,15.320609 0.4693083,15.251175 0.4693083,15.247281 c 0,-0.0042 0.20734128,-0.0071 0.50256056,-0.0071 H 1.4744294 l 0.041171,0.126953 c 0.4527881,1.396209 1.1368416,2.628137 2.0746723,3.736328 0.3488759,0.412251 0.8361877,0.902625 1.2543891,1.262273 0.9362397,0.805155 1.9551609,1.420532 3.0977421,1.870882 0.3011634,0.118703 0.8298836,0.299433 0.8463008,0.289286 0.00407,-0.0025 0.00857,-0.0013 0.010015,0.0028 0.00353,0.0099 0.2779789,0.08862 0.2878266,0.08254 0.00427,-0.0026 0.00776,-0.0015 0.00776,0.0025 0,0.01105 0.1044797,0.03563 0.1078953,0.02538 0.00153,-0.0046 0.00864,-0.0083 0.015802,-0.0082 0.011063,1.01e-4 0.011293,0.0012 0.00153,0.0074 -0.00632,0.004 -0.00984,0.0089 -0.00781,0.01087 0.00202,0.002 0.049276,0.0148 0.1050039,0.02848 0.067056,0.01647 0.1022851,0.022 0.1041664,0.01636 0.00156,-0.0047 0.00595,-0.0085 0.00976,-0.0085 0.0038,0 0.00489,0.0053 0.00242,0.01172 -0.00285,0.0074 1.094e-4,0.01172 0.00806,0.01172 0.00691,0 0.012555,-0.0035 0.012555,-0.0078 0,-0.0043 0.00615,-0.0075 0.013672,-0.0072 0.00817,3.69e-4 0.00974,0.0022 0.00391,0.0046 -0.019663,0.0079 -0.00875,0.016 0.034847,0.02576 0.032441,0.0073 0.045408,0.0076 0.047526,0.0012 0.0016,-0.0048 0.00877,-0.0087 0.015934,-0.0086 0.011063,1.02e-4 0.011293,0.0012 0.00153,0.0074 -0.015077,0.0095 -0.010213,0.0134 0.025164,0.02001 0.019562,0.0037 0.029297,0.0026 0.029297,-0.0032 0,-0.0048 0.00341,-0.0087 0.00757,-0.0087 0.00416,0 0.00573,0.0048 0.00349,0.01062 -0.00296,0.0077 0.00931,0.01326 0.044923,0.02026 0.035037,0.0069 0.049811,0.0072 0.051847,0.0011 0.00157,-0.0047 0.00596,-0.0085 0.00976,-0.0085 0.0038,0 0.00509,0.0048 0.00285,0.01059 -0.00309,0.008 0.022729,0.01589 0.1072196,0.03259 0.080498,0.01591 0.1121289,0.01947 0.1143367,0.01284 0.00168,-0.005 0.00616,-0.0092 0.00997,-0.0092 0.0038,0 0.00512,0.0047 0.00291,0.01043 -0.00725,0.0189 0.4719098,0.09641 0.8755868,0.141637 0.267027,0.02991 0.364241,0.0369 0.557682,0.04008 0.113366,0.0019 0.213898,0.0053 0.223405,0.0077 0.01926,0.0048 0.921553,-0.0126 1.031413,-0.01993 l 0.03906,-0.0026 -0.03516,-0.0055 -0.03516,-0.0055 0.03665,-0.0012 c 0.02016,-6.45e-4 0.03882,0.0023 0.04148,0.0066 0.006,0.0098 0.09515,0.01037 0.10115,6.67e-4 0.0024,-0.0039 0,-0.0089 -0.0054,-0.0111 -0.0062,-0.0025 -0.005,-0.0042 0.0032,-0.0046 0.0072,-3.39e-4 0.01444,0.0036 0.01618,0.0089 0.0025,0.0074 0.03436,0.0074 0.147136,-3.9e-5 0.408678,-0.027 1.031792,-0.127853 1.56051,-0.252566 0.14855,-0.03504 0.538334,-0.138118 0.573702,-0.151716 0.01293,-0.005 0.01367,0.02196 0.01367,0.498932 v 0.504187 l -0.04101,0.01182 c -0.144638,0.04167 -0.567608,0.140968 -0.802735,0.188453 -0.476936,0.09632 -0.838824,0.140906 -1.433593,0.17662 -0.175548,0.01054 -1.710044,0.01618 -1.800782,0.0066 z"
     id="path1841"
     inkscape:connector-curvature="0" />
  <path
     style="fill:#585858;fill-opacity:1;stroke:#585858;stroke-width:0.00234375;stroke-miterlimit:4;stroke-dasharray:none;stroke-opacity:1"
     d=""
     id="path1843"
     inkscape:connector-curvature="0" />
  <path
     style="fill:#585858;fill-opacity:1;stroke:#585858;stroke-width:0.00234375;stroke-miterlimit:4;stroke-dasharray:none;stroke-opacity:1"
     d=""
     id="path1845"
     inkscape:connector-curvature="0" />
  <path
     style="fill:#585858;fill-opacity:1;stroke:#585858;stroke-width:0.00117188;stroke-miterlimit:4;stroke-dasharray:none;stroke-opacity:1"
     d="M 6.0787919,21.267176 C 5.9669466,21.196711 5.7837886,21.07286 5.633883,20.966328 4.8645292,20.41958 4.1563726,19.763764 3.5526182,19.038891 3.2830703,18.715269 3.0548465,18.408877 2.827513,18.065431 2.7191335,17.901696 2.7262177,17.913087 2.7327729,17.913087 c 0.00293,0 0.025379,0.03112 0.049895,0.06916 0.3021562,0.468783 0.7070342,0.992537 1.1015405,1.424964 0.1571586,0.172265 0.4252081,0.445051 0.5799171,0.590165 0.5151629,0.483212 1.0376626,0.890276 1.6301086,1.269969 0.013642,0.0087 0.023129,0.01693 0.021081,0.0182 -0.00205,0.0013 -0.018483,-0.007 -0.036523,-0.01836 z"
     id="path1847"
     inkscape:connector-curvature="0" />
  <path
     style="fill:#585858;fill-opacity:1;stroke:#585858;stroke-width:0.00117188;stroke-miterlimit:4;stroke-dasharray:none;stroke-opacity:1"
     d=""
     id="path1849"
     inkscape:connector-curvature="0" />
  <path
     style="fill:#585858;fill-opacity:1;stroke:#585858;stroke-width:0.00117188;stroke-miterlimit:4;stroke-dasharray:none;stroke-opacity:1"
     d=""
     id="path1851"
     inkscape:connector-curvature="0" />
  <path
     style="fill:#585858;fill-opacity:1;stroke:#585858;stroke-width:0.00117188;stroke-miterlimit:4;stroke-dasharray:none;stroke-opacity:1"
     d="M 2.660139,17.806808 C 1.784392,16.400914 1.2378164,14.814612 1.0642149,13.175031 1.0335185,12.885118 1.0072993,12.49925 1.0182966,12.49925 c 0.00175,0 0.00537,0.04263 0.00805,0.09473 0.00979,0.190288 0.028868,0.422607 0.051415,0.625977 0.180405,1.62723 0.718073,3.183783 1.5739648,4.55664 0.020761,0.0333 0.039052,0.06274 0.040647,0.06543 0.00172,0.0029 8.246e-4,0.0049 -0.00221,0.0048 -0.00281,-3.9e-5 -0.01632,-0.01805 -0.030017,-0.04004 z"
     id="path1853"
     inkscape:connector-curvature="0" />
  <path
     style="fill:none;stroke:#585858;stroke-width:0.8;stroke-linecap:butt;stroke-linejoin:miter;stroke-opacity:1;stroke-miterlimit:4;stroke-dasharray:none;fill-opacity:1"
     d="M 3.84375,19.34375 2.125,17.125 0.9375,13.5 1.125,9.71875 l 1.15625,-2.875 1.3125,-1.875 3.3125,-2.78125 3.53125,-1.09375 3.375,0.03125 2.5625,0.8125 2.9375,1.90625 2.03125,2.3125 1.1875,2.71875 0.4375,3.09375 -0.3125,2.875 -1.25,3 L 19.59375,20 17.294148,21.626837 15.03125,22.65625 11.859233,22.990882 8.625,22.59375 5.21875,20.78125 Z"
     id="path1857"
     inkscape:connector-curvature="0" />
</svg>
